<svg xmlns="http://www.w3.org/2000/svg" viewBox="0 0 537.92 147.42">
	<polygon fill="#fff"
		points="282.43 35.3 280.43 35.3 280.43 37.3 280.43 108.94 280.43 110.94 282.43 110.94 298.97 110.94 300.97 110.94 300.97 108.94 300.97 37.3 300.97 35.3 298.97 35.3 282.43 35.3" />
	<polygon fill="#fff"
		points="381.16 35.3 379.81 35.3 379.31 36.54 359.41 85.13 339.4 36.54 338.89 35.3 337.55 35.3 319.4 35.3 316.34 35.3 317.57 38.1 349.05 109.75 349.57 110.94 350.88 110.94 367.42 110.94 368.72 110.94 369.25 109.76 401.13 38.11 402.38 35.3 399.3 35.3 381.16 35.3" />
	<polygon fill="#fff"
		points="419.84 35.3 417.84 35.3 417.84 37.3 417.84 108.94 417.84 110.94 419.84 110.94 436.39 110.94 438.39 110.94 438.39 108.94 438.39 37.3 438.39 35.3 436.39 35.3 419.84 35.3" />
	<polygon fill="#fff"
		points="508.77 73.12 535.44 38.52 537.92 35.3 533.86 35.3 512.77 35.3 511.78 35.3 511.18 36.08 495.7 56.16 480.22 36.08 479.62 35.3 478.63 35.3 457.54 35.3 453.48 35.3 455.96 38.52 482.63 73.12 455.96 107.72 453.48 110.94 457.54 110.94 478.63 110.94 479.62 110.94 480.22 110.17 495.7 90.08 511.18 110.17 511.78 110.94 512.77 110.94 533.86 110.94 537.92 110.94 535.44 107.72 508.77 73.12" />
	<path fill="#fff"
		d="M231.6,113.81a43,43,0,0,1-29.51-11.62,38.77,38.77,0,0,1,0-56.93c16.54-15.59,42.93-15.52,58.82.16l-14,14.24c-8.33-8.22-22.26-8.15-31.07.16a18.77,18.77,0,0,0,0,27.81c8.64,8.14,22.87,8.2,31.09.14l14,14.28A41.66,41.66,0,0,1,231.6,113.81Z" />
	<path fill="#fff"
		d="M73.71,94A20.31,20.31,0,0,0,94,73.71h53.43A73.71,73.71,0,1,1,73.71,0V53.43a20.28,20.28,0,0,0,0,40.56Z" />
	<rect fill="#ff3600" x="93.71" y="0.01" width="53.49" height="53.49" />
</svg>